<svg height="512" viewBox="0 0 512 512" width="512" xmlns="http://www.w3.org/2000/svg"><g id="flat"><path d="m232 440h256v48h-472v-48z" fill="#6cbae5"/><path d="m232.001 440.001h256v8h-472v-8z" fill="#73c7f5"/><path d="m408 200h16v96h-16z" fill="#dbdbdb"/><path d="m264 136-16-8-13.456 13.456a36 36 0 0 1 -25.456 10.544h-25.088l48-120a80 80 0 0 1 32 64z" fill="#eeb58e"/><path d="m242.13 361.091-10.13 70.909h-56v-48h-104v-64h134.492a36 36 0 0 1 35.638 41.091z" fill="#428dc5"/><path d="m232 32-40 120h-32l24-128a147.912 147.912 0 0 1 46.768 7.589z" fill="#e4e4e2"/><path d="m184 24-66.025 22.008a52.478 52.478 0 0 0 -35.169 41.159 52.475 52.475 0 0 0 4.826 32.1l16.368 32.733h56z" fill="#ea9d2d"/><path d="m184 320a98.633 98.633 0 0 1 -92.352 64h-51.648l-5.291-52.9a212.5 212.5 0 0 1 69.291-179.1l-16-32h115.146a3 3 0 0 1 2.683 4.342l-13.829 27.658z" fill="#834b10"/><path d="m264 482.55v5.45h-88v-56h56v16l6.25 1.56a34.007 34.007 0 0 1 25.75 32.99z" fill="#8d7761"/><path d="m256 482.55v5.45h-80v-56h48v16l6.25 1.56a34.007 34.007 0 0 1 25.75 32.99z" fill="#746250"/><path d="m16 384h128v104h-128z" fill="#ea9d2d" transform="matrix(-1 0 0 -1 160 872)"/><path d="m112 416h32v72h-32z" fill="#d18d28"/><path d="m48 416h32v72h-32z" fill="#d18d28"/><path d="m232 32a80 80 0 0 1 32 64h-9.373a54.626 54.626 0 0 1 -38.627-16z" fill="#746250"/><path d="m312.007 280a8 8 0 0 1 -4.656-14.511l112-80a8 8 0 0 1 9.3 13.02l-112 80a7.958 7.958 0 0 1 -4.644 1.491z" fill="#3775a4"/><path d="m399.608 296.392 16.392-16.392 16.392 16.392a53.288 53.288 0 0 1 15.608 37.681v.315a53.291 53.291 0 0 1 -20 41.612 60 60 0 0 1 12 36v4l-24-16-24 16v-6.949a60 60 0 0 1 8.967-31.554l.926-1.5-.125-.112a53.286 53.286 0 0 1 -17.768-39.721v-2.091a53.288 53.288 0 0 1 15.608-37.681z" fill="#6cbae5"/><circle cx="416" cy="320" fill="#3775a4" r="8"/><ellipse cx="416" cy="468" fill="#428dc5" rx="48" ry="20"/><path d="m112 320a8 8 0 0 1 -3.019-15.412l39.312-16a8 8 0 1 1 6.031 14.82l-39.311 16a7.979 7.979 0 0 1 -3.013.592z" fill="#70400e"/><path d="m144 272h-40a8 8 0 0 1 0-16h40a8 8 0 0 1 0 16z" fill="#70400e"/><g fill="#ebebeb"><circle cx="40" cy="136" r="16"/><circle cx="472" cy="184" r="16"/><circle cx="312.002" cy="383.998" r="16"/><circle cx="320" cy="40" r="16"/><circle cx="432" cy="88" r="16"/><circle cx="336" cy="160" r="16"/></g><path d="m218.576 185.486 5.424 70.514h56v64h-90.457a40 40 0 0 1 -38.231-28.237l-6.176-30.557a177.911 177.911 0 0 1 4.84-89.158 36.267 36.267 0 0 1 32.439-20.048 36.269 36.269 0 0 1 36.161 33.486z" fill="#ea9d2d"/><path d="m16 384h128v32h-128z" fill="#f3af3e"/><path d="m16 384h128v16h-128z" fill="#c38325"/><path d="m280 264 24-8 8 16h16v32l-16 16h-32z" fill="#834b10"/></g></svg>